<?xml version="1.0" encoding="UTF-8" standalone="no"?>
<!-- Created with Inkscape (http://www.inkscape.org/) -->

<svg
   xmlns:dc="http://purl.org/dc/elements/1.1/"
   xmlns:cc="http://creativecommons.org/ns#"
   xmlns:rdf="http://www.w3.org/1999/02/22-rdf-syntax-ns#"
   xmlns:svg="http://www.w3.org/2000/svg"
   xmlns="http://www.w3.org/2000/svg"
   xmlns:sodipodi="http://sodipodi.sourceforge.net/DTD/sodipodi-0.dtd"
   xmlns:inkscape="http://www.inkscape.org/namespaces/inkscape"
   width="744.09448819"
   height="1052.3622047"
   id="svg2"
   version="1.1"
   inkscape:version="0.48.5 r10040"
   sodipodi:docname="New document 1">
  <defs
     id="defs4" />
  <sodipodi:namedview
     id="base"
     pagecolor="#ffffff"
     bordercolor="#666666"
     borderopacity="1.0"
     inkscape:pageopacity="0.0"
     inkscape:pageshadow="2"
     inkscape:zoom="1.979899"
     inkscape:cx="41.449142"
     inkscape:cy="851.88767"
     inkscape:document-units="px"
     inkscape:current-layer="layer1"
     showgrid="false"
     inkscape:window-width="1918"
     inkscape:window-height="1184"
     inkscape:window-x="0"
     inkscape:window-y="0"
     inkscape:window-maximized="0" />
  <metadata
     id="metadata7">
    <rdf:RDF>
      <cc:Work
         rdf:about="">
        <dc:format>image/svg+xml</dc:format>
        <dc:type
           rdf:resource="http://purl.org/dc/dcmitype/StillImage" />
        <dc:title></dc:title>
      </cc:Work>
    </rdf:RDF>
  </metadata>
  <g
     inkscape:label="Layer 1"
     inkscape:groupmode="layer"
     id="layer1">
    <rect
       style="color:#000000;fill:#f4f4f4;fill-opacity:1;stroke:#000000;stroke-width:1;stroke-linecap:butt;stroke-linejoin:miter;stroke-miterlimit:4;stroke-opacity:1;stroke-dasharray:none;stroke-dashoffset:0;marker:none;visibility:visible;display:inline;overflow:visible;enable-background:accumulate"
       id="rect2985-3"
       width="140"
       height="188.57143"
       x="83.158112"
       y="-12.065304"
       ry="10.995286"
       transform="matrix(0.93528007,0.35390845,-0.35390845,0.93528007,0,0)"
       inkscape:export-filename="/home/buq2/src/buq2_website_content/articles/default/icon.png"
       inkscape:export-xdpi="197.57289"
       inkscape:export-ydpi="197.57289" />
    <rect
       style="color:#000000;fill:#f4f4f4;fill-opacity:1;stroke:#000000;stroke-width:1;stroke-linecap:butt;stroke-linejoin:miter;stroke-miterlimit:4;stroke-opacity:1;stroke-dasharray:none;stroke-dashoffset:0;marker:none;visibility:visible;display:inline;overflow:visible;enable-background:accumulate"
       id="rect2985-9"
       width="140"
       height="188.57143"
       x="75.216721"
       y="-18.780769"
       ry="10.995286"
       transform="matrix(0.93528007,0.35390845,-0.35390845,0.93528007,0,0)"
       inkscape:export-filename="/home/buq2/src/buq2_website_content/articles/default/icon.png"
       inkscape:export-xdpi="197.57289"
       inkscape:export-ydpi="197.57289" />
    <rect
       style="color:#000000;fill:#f4f4f4;fill-opacity:1;stroke:#000000;stroke-width:1;stroke-linecap:butt;stroke-linejoin:miter;stroke-miterlimit:4;stroke-opacity:1;stroke-dasharray:none;stroke-dashoffset:0;marker:none;visibility:visible;display:inline;overflow:visible;enable-background:accumulate"
       id="rect2985"
       width="140"
       height="188.57143"
       x="63.495232"
       y="-24.138502"
       ry="10.995286"
       transform="matrix(0.93528007,0.35390845,-0.35390845,0.93528007,0,0)"
       inkscape:export-filename="/home/buq2/src/buq2_website_content/articles/default/icon.png"
       inkscape:export-xdpi="197.57289"
       inkscape:export-ydpi="197.57289" />
    <path
       style="fill:none;stroke:#000000;stroke-width:1px;stroke-linecap:butt;stroke-linejoin:miter;stroke-opacity:1"
       d="m 60.698808,44.039581 c 0,0 9.11594,-4.110918 9.345712,-1.863866 0.229773,2.247053 -5.387859,2.821484 2.106481,7.27741 7.49434,4.455926 12.218218,6.243434 21.500065,5.975482 9.281844,-0.267951 15.193114,-0.191244 17.835844,5.669004 2.64273,5.860246 -8.93718,3.638529 4.17478,7.520025 13.11198,3.881495 11.64379,0.625802 23.40246,2.375131 11.75867,1.749327 10.04788,0.561938 12.75448,4.82627 2.70659,4.264333 2.75761,6.983773 5.94944,7.111503 3.19183,0.127729 4.37922,-1.583073 7.45616,-2.578871 3.07694,-0.995797 8.45196,0.498074 8.45196,0.498074"
       id="path3757"
       inkscape:connector-curvature="0"
       inkscape:export-filename="/home/buq2/src/buq2_website_content/articles/default/icon.png"
       inkscape:export-xdpi="197.57289"
       inkscape:export-ydpi="197.57289" />
    <path
       style="fill:none;stroke:#000000;stroke-width:1px;stroke-linecap:butt;stroke-linejoin:miter;stroke-opacity:1"
       d="m 58.017547,51.125397 c 2.834326,1.072505 11.873558,2.872855 11.030826,7.954234 -0.842732,5.08138 -3.575015,9.447755 3.996032,7.992413 7.571047,-1.455342 7.341274,-3.702394 14.490956,-2.617047 7.149681,1.085347 7.456161,-2.578869 11.043669,3.63888 3.58751,6.217748 -5.809224,5.362174 8.06877,10.073557 13.87799,4.711385 9.92014,3.753766 20.4404,4.494455 10.52027,0.74069 9.58832,-3.932169 13.82698,1.991944 4.23865,5.924113 4.40455,9.767076 8.83479,10.903446 4.43025,1.13637 9.33287,2.45149 15.308,0.93228 5.97514,-1.5192 3.89399,2.55354 3.89399,2.55354"
       id="path3759"
       inkscape:connector-curvature="0"
       inkscape:export-filename="/home/buq2/src/buq2_website_content/articles/default/icon.png"
       inkscape:export-xdpi="197.57289"
       inkscape:export-ydpi="197.57289" />
    <path
       style="fill:none;stroke:#000000;stroke-width:1px;stroke-linecap:butt;stroke-linejoin:miter;stroke-opacity:1"
       d="m 50.867516,70.020908 c 7.098659,-1.634093 9.537305,-6.651608 9.575485,0.383187 0.03818,7.034798 0.03818,7.034798 0.03818,7.034798 0,0 -1.838529,2.004436 2.949214,2.196028 4.787743,0.191593 5.668653,2.145009 11.235263,-1.148862 5.566611,-3.293872 4.86445,-5.719675 10.405375,-0.382839 5.540923,5.336838 1.876707,5.030358 9.256161,8.362758 7.379456,3.3324 7.072976,6.996611 15.410046,6.371161 8.33707,-0.62545 10.58412,-0.85522 10.58412,-0.85522 0,0 -2.18319,-1.366145 1.82568,2.31091 4.00888,3.67706 2.41297,3.6132 8.49015,7.532871 6.07717,3.91967 5.94944,7.11151 12.10332,5.11991 6.15389,-1.9916 3.85581,-4.48126 8.57969,-2.69375 4.72388,1.7875 3.53648,3.4983 6.07717,3.91967 2.5407,0.42137 3.19183,0.12773 5.43889,-0.10204 2.24705,-0.22978 3.48546,0.77886 3.48546,0.77886"
       id="path3763"
       inkscape:connector-curvature="0"
       inkscape:export-filename="/home/buq2/src/buq2_website_content/articles/default/icon.png"
       inkscape:export-xdpi="197.57289"
       inkscape:export-ydpi="197.57289" />
    <path
       style="fill:none;stroke:#000000;stroke-width:1px;stroke-linecap:butt;stroke-linejoin:miter;stroke-opacity:1"
       d="m 44.496353,85.430954 c 2.425804,-0.702161 1.251254,-3.306711 4.851608,-1.404323 3.60035,1.902397 2.132164,-1.353294 4.072738,2.081148 1.940573,3.434442 0.280796,4.966487 5.477061,6.93275 5.196266,1.96625 6.613429,2.50251 12.231061,1.92808 5.61763,-0.57443 0.766023,0.82989 7.034794,-0.0382 6.26877,-0.86807 4.685698,-5.247287 9.460598,-0.74034 4.7749,4.50695 8.605024,8.656391 11.375486,11.324811 2.770461,2.66842 -4.455927,7.49434 9.026391,6.1157 13.48231,-1.37862 10.46923,-1.97874 14.42709,-1.02112 3.95785,0.95761 12.03946,6.71581 13.92901,7.43081 1.88956,0.71501 5.48991,2.61741 12.58856,0.98331 7.09866,-1.63409 9.4606,-0.74034 9.69037,1.50672"
       id="path3765"
       inkscape:connector-curvature="0"
       inkscape:export-filename="/home/buq2/src/buq2_website_content/articles/default/icon.png"
       inkscape:export-xdpi="197.57289"
       inkscape:export-ydpi="197.57289" />
    <path
       style="fill:none;stroke:#000000;stroke-width:1px;stroke-linecap:butt;stroke-linejoin:miter;stroke-opacity:1"
       d="m 37.767688,101.78578 c 0,0 2.796147,-5.962291 7.520025,-4.174781 4.723878,1.7875 0.472388,0.17875 8.081614,5.758201 7.609227,5.57945 3.344895,8.28605 13.814134,6.30729 10.469237,-1.97875 6.345474,-6.77933 11.592762,-2.09363 5.247288,4.6857 1.468185,3.25569 8.311389,8.00525 6.843199,4.74957 0.331814,7.68594 13.456628,7.25208 13.12481,-0.43386 14.14629,-5.98763 14.72073,-0.37 0.57443,5.61763 -3.39627,8.97537 2.62988,10.17561 6.02616,1.20022 4.72389,1.78751 12.40981,1.45569 7.68594,-0.33182 9.23084,-2.9874 12.11618,0.80454 2.88535,3.79196 2.87251,8.10731 5.29831,7.40515 2.42581,-0.70216 5.45173,-4.4174 5.45173,-4.4174"
       id="path3767"
       inkscape:connector-curvature="0"
       inkscape:export-filename="/home/buq2/src/buq2_website_content/articles/default/icon.png"
       inkscape:export-xdpi="197.57289"
       inkscape:export-ydpi="197.57289" />
    <path
       style="fill:none;stroke:#000000;stroke-width:1px;stroke-linecap:butt;stroke-linejoin:miter;stroke-opacity:1"
       d="m 34.767104,116.85117 c 0,0 -0.280793,-4.9665 7.098659,-1.6341 7.379456,3.3324 -0.191591,4.78774 12.333104,7.36696 12.524699,2.57921 5.311153,3.08978 19.674381,3.66456 14.363224,0.57479 13.073791,-3.1533 17.427326,3.89434 4.35353,7.04764 -1.979102,9.51162 8.004906,11.66947 9.984,2.15786 11.51605,3.81764 20.14676,3.84332 8.63071,0.0257 10.41822,-4.69819 14.00573,1.51956 3.58751,6.21774 2.09363,11.59276 7.23888,10.83958 5.14525,-0.75318 10.64799,-2.45115 10.64799,-2.45115"
       id="path3769"
       inkscape:connector-curvature="0"
       inkscape:export-filename="/home/buq2/src/buq2_website_content/articles/default/icon.png"
       inkscape:export-xdpi="197.57289"
       inkscape:export-ydpi="197.57289" />
    <path
       style="fill:none;stroke:#000000;stroke-width:1px;stroke-linecap:butt;stroke-linejoin:miter;stroke-opacity:1"
       d="m 29.647197,128.95449 c 2.425804,-0.70216 1.136371,-4.43024 5.860249,-2.64273 4.723877,1.7875 2.719439,-0.051 7.609226,5.57945 4.889783,5.63048 3.817282,8.4648 9.613661,7.41799 5.796384,-1.04683 6.268771,-0.86807 10.762878,-1.32762 4.494103,-0.45954 1.608755,-4.25149 7.736953,2.38763 6.128199,6.63911 -4.404905,10.21378 11.145716,9.07775 15.550616,-1.13602 13.137656,-4.74921 17.91255,-0.24226 4.7749,4.50694 -3.153646,6.90707 8.54116,10.2523 11.69481,3.34525 18.49983,1.06002 22.10019,2.96241 3.60035,1.9024 2.77045,2.66842 5.83455,5.98798 3.0641,3.31955 6.14104,2.32376 6.14104,2.32376"
       id="path3771"
       inkscape:connector-curvature="0"
       inkscape:export-filename="/home/buq2/src/buq2_website_content/articles/default/icon.png"
       inkscape:export-xdpi="197.57289"
       inkscape:export-ydpi="197.57289" />
    <path
       style="fill:none;stroke:#000000;stroke-width:1px;stroke-linecap:butt;stroke-linejoin:miter;stroke-opacity:1"
       d="m 24.042058,145.19443 c 2.962056,-2.11932 3.268537,-5.78354 5.860247,-2.64273 2.59171,3.14081 -3.677057,4.00887 3.11512,6.039 6.792181,2.03012 7.507182,0.14057 13.775953,-0.7275 6.268771,-0.86807 2.732285,-4.36638 9.690372,1.50671 6.958086,5.87309 1.812844,6.62627 12.49901,11.20993 10.68617,4.58365 15.052544,7.31594 20.37654,6.09037 5.323995,-1.22557 5.158085,-5.06854 8.988208,-0.91909 3.830122,4.14944 0.86807,6.26877 7.123992,9.71606 6.25593,3.44728 5.23445,9.00105 16.82721,6.90741 11.59277,-2.09364 14.96335,-2.4383 14.96335,-2.4383"
       id="path3773"
       inkscape:connector-curvature="0"
       inkscape:export-filename="/home/buq2/src/buq2_website_content/articles/default/icon.png"
       inkscape:export-xdpi="197.57289"
       inkscape:export-ydpi="197.57289" />
    <path
       style="fill:none;stroke:#000000;stroke-width:1px;stroke-linecap:butt;stroke-linejoin:miter;stroke-opacity:1"
       d="m 20.454201,158.95754 c 5.566613,-3.29388 7.417984,-9.61367 12.665272,-4.92797 5.247287,4.6857 8.362407,10.7247 14.209812,12.39731 5.847402,1.67263 15.895275,2.23457 19.738242,2.06866 3.842968,-0.16591 2.911034,-4.83877 7.085817,2.68126 4.174782,7.52003 0.970113,11.70765 10.966963,9.55015 9.996847,-2.1575 14.618686,-5.80888 17.210393,-2.66807 2.59171,3.14081 0.26796,9.28184 6.11535,10.95447 5.84741,1.67262 19.62336,0.94512 19.62336,0.94512 0,0 2.96206,-2.11931 3.7791,1.43001 0.81705,3.54933 -0.31932,7.97957 -0.31932,7.97957"
       id="path3775"
       inkscape:connector-curvature="0"
       inkscape:export-filename="/home/buq2/src/buq2_website_content/articles/default/icon.png"
       inkscape:export-xdpi="197.57289"
       inkscape:export-ydpi="197.57289" />
    <path
       style="fill:none;stroke:#000000;stroke-width:1px;stroke-linecap:butt;stroke-linejoin:miter;stroke-opacity:1"
       d="m 73.121812,21.199061 c 7.162523,-3.230007 12.01413,-4.634328 11.528899,-0.497724 -0.48523,4.136604 -5.0432,6.192062 2.821484,5.387858 7.864685,-0.804204 4.570813,-6.370813 8.337072,-0.625453 3.76626,5.74536 12.562873,9.614012 12.562873,9.614012 l 7.0348,-0.03818 8.68173,2.745126"
       id="path3777"
       inkscape:connector-curvature="0"
       inkscape:export-filename="/home/buq2/src/buq2_website_content/articles/default/icon.png"
       inkscape:export-xdpi="197.57289"
       inkscape:export-ydpi="197.57289" />
  </g>
</svg>
